REM DIRINDEX 1\2,1\3,1\4,1\5\6,1\5\7,1\8
REM DIRNAME cjc115,folder01,folder02,folder03,folder04,folder05,folder06,folder07
TITLE ""
FILE "119 Åy119ÅzUnit7 (1345 pinpoint_1356 horrify).mp3" MP3
  TRACK 01 AUDIO
    TITLE "0:"
    INDEX 01 00:00:00
  TRACK 02 AUDIO
    TITLE "2:cjc115_4650"
    INDEX 01 00:00:07
  TRACK 03 AUDIO
    TITLE "0:"
    INDEX 01 00:01:22
  TRACK 04 AUDIO
    TITLE "3:cjc115_4651"
    INDEX 01 00:01:30
  TRACK 05 AUDIO
    TITLE "0:"
    INDEX 01 00:04:42
  TRACK 06 AUDIO
    TITLE "4:cjc115_4652"
    INDEX 01 00:04:50
  TRACK 07 AUDIO
    TITLE "0:"
    INDEX 01 00:07:39
  TRACK 08 AUDIO
    TITLE "2:cjc115_4653"
    INDEX 01 00:08:46
  TRACK 09 AUDIO
    TITLE "0:"
    INDEX 01 00:10:00
  TRACK 10 AUDIO
    TITLE "3:cjc115_4654"
    INDEX 01 00:10:08
  TRACK 11 AUDIO
    TITLE "0:"
    INDEX 01 00:11:44
  TRACK 12 AUDIO
    TITLE "4:cjc115_4655"
    INDEX 01 00:11:52
  TRACK 13 AUDIO
    TITLE "0:"
    INDEX 01 00:14:23
  TRACK 14 AUDIO
    TITLE "2:cjc115_4656"
    INDEX 01 00:15:30
  TRACK 15 AUDIO
    TITLE "0:"
    INDEX 01 00:16:49
  TRACK 16 AUDIO
    TITLE "3:cjc115_4657"
    INDEX 01 00:16:53
  TRACK 17 AUDIO
    TITLE "0:"
    INDEX 01 00:19:09
  TRACK 18 AUDIO
    TITLE "4:cjc115_4658"
    INDEX 01 00:19:11
  TRACK 19 AUDIO
    TITLE "0:"
    INDEX 01 00:22:72
  TRACK 20 AUDIO
    TITLE "2:cjc115_4659"
    INDEX 01 00:24:02
  TRACK 21 AUDIO
    TITLE "0:"
    INDEX 01 00:25:23
  TRACK 22 AUDIO
    TITLE "3:cjc115_4660"
    INDEX 01 00:25:31
  TRACK 23 AUDIO
    TITLE "0:"
    INDEX 01 00:27:47
  TRACK 24 AUDIO
    TITLE "4:cjc115_4661"
    INDEX 01 00:27:51
  TRACK 25 AUDIO
    TITLE "0:"
    INDEX 01 00:31:53
  TRACK 26 AUDIO
    TITLE "2:cjc115_4662"
    INDEX 01 00:32:60
  TRACK 27 AUDIO
    TITLE "0:"
    INDEX 01 00:34:00
  TRACK 28 AUDIO
    TITLE "3:cjc115_4663"
    INDEX 01 00:34:08
  TRACK 29 AUDIO
    TITLE "0:"
    INDEX 01 00:36:54
  TRACK 30 AUDIO
    TITLE "4:cjc115_4664"
    INDEX 01 00:36:62
  TRACK 31 AUDIO
    TITLE "0:"
    INDEX 01 00:40:30
  TRACK 32 AUDIO
    TITLE "2:cjc115_4665"
    INDEX 01 00:41:38
  TRACK 33 AUDIO
    TITLE "0:"
    INDEX 01 00:42:55
  TRACK 34 AUDIO
    TITLE "3:cjc115_4666"
    INDEX 01 00:42:63
  TRACK 35 AUDIO
    TITLE "0:"
    INDEX 01 00:44:54
  TRACK 36 AUDIO
    TITLE "4:cjc115_4667"
    INDEX 01 00:44:63
  TRACK 37 AUDIO
    TITLE "0:"
    INDEX 01 00:48:40
  TRACK 38 AUDIO
    TITLE "2:cjc115_4668"
    INDEX 01 00:49:49
  TRACK 39 AUDIO
    TITLE "0:"
    INDEX 01 00:50:64
  TRACK 40 AUDIO
    TITLE "3:cjc115_4669"
    INDEX 01 00:50:74
  TRACK 41 AUDIO
    TITLE "0:"
    INDEX 01 00:52:02
  TRACK 42 AUDIO
    TITLE "4:cjc115_4670"
    INDEX 01 00:52:10
  TRACK 43 AUDIO
    TITLE "0:"
    INDEX 01 00:56:00
  TRACK 44 AUDIO
    TITLE "2:cjc115_4671"
    INDEX 01 00:57:05
  TRACK 45 AUDIO
    TITLE "0:"
    INDEX 01 00:58:28
  TRACK 46 AUDIO
    TITLE "3:cjc115_4672"
    INDEX 01 00:58:36
  TRACK 47 AUDIO
    TITLE "0:"
    INDEX 01 00:59:53
  TRACK 48 AUDIO
    TITLE "4:cjc115_4673"
    INDEX 01 00:59:55
  TRACK 49 AUDIO
    TITLE "0:"
    INDEX 01 01:04:50
  TRACK 50 AUDIO
    TITLE "2:cjc115_4674"
    INDEX 01 01:05:58
  TRACK 51 AUDIO
    TITLE "0:"
    INDEX 01 01:07:04
  TRACK 52 AUDIO
    TITLE "3:cjc115_4675"
    INDEX 01 01:07:14
  TRACK 53 AUDIO
    TITLE "0:"
    INDEX 01 01:08:52
  TRACK 54 AUDIO
    TITLE "4:cjc115_4676"
    INDEX 01 01:08:58
  TRACK 55 AUDIO
    TITLE "0:"
    INDEX 01 01:12:21
  TRACK 56 AUDIO
    TITLE "2:cjc115_4677"
    INDEX 01 01:13:30
  TRACK 57 AUDIO
    TITLE "0:"
    INDEX 01 01:14:51
  TRACK 58 AUDIO
    TITLE "3:cjc115_4678"
    INDEX 01 01:14:59
  TRACK 59 AUDIO
    TITLE "0:"
    INDEX 01 01:16:12
  TRACK 60 AUDIO
    TITLE "4:cjc115_4679"
    INDEX 01 01:16:20
  TRACK 61 AUDIO
    TITLE "0:"
    INDEX 01 01:19:28
  TRACK 62 AUDIO
    TITLE "2:cjc115_4680"
    INDEX 01 01:20:36
  TRACK 63 AUDIO
    TITLE "0:"
    INDEX 01 01:21:57
  TRACK 64 AUDIO
    TITLE "3:cjc115_4681"
    INDEX 01 01:21:63
  TRACK 65 AUDIO
    TITLE "0:"
    INDEX 01 01:22:70
  TRACK 66 AUDIO
    TITLE "4:cjc115_4682"
    INDEX 01 01:23:03
  TRACK 67 AUDIO
    TITLE "0:"
    INDEX 01 01:26:03
  TRACK 68 AUDIO
    TITLE "2:cjc115_4683"
    INDEX 01 01:27:06
  TRACK 69 AUDIO
    TITLE "0:"
    INDEX 01 01:28:20
  TRACK 70 AUDIO
    TITLE "3:cjc115_4684"
    INDEX 01 01:28:31
  TRACK 71 AUDIO
    TITLE "0:"
    INDEX 01 01:29:66
  TRACK 72 AUDIO
    TITLE "4:cjc115_4685"
    INDEX 01 01:29:74
  TRACK 73 AUDIO
    TITLE "0:"
    INDEX 01 01:33:33
